<svg width="64" height="64" viewBox="0 0 64 64" fill="none" xmlns="http://www.w3.org/2000/svg">
  <!-- Favicon version for browser tab -->
  <defs>
    <linearGradient id="accentGrad" x1="0%" y1="0%" x2="100%" y2="100%">
      <stop offset="0%" style="stop-color:#10b981;stop-opacity:1" />
      <stop offset="33%" style="stop-color:#3b82f6;stop-opacity:1" />
      <stop offset="66%" style="stop-color:#6366f1;stop-opacity:1" />
      <stop offset="100%" style="stop-color:#8b5cf6;stop-opacity:1" />
    </linearGradient>

    <linearGradient id="lineGrad" x1="0%" y1="0%" x2="100%" y2="0%">
      <stop offset="0%" style="stop-color:#34d399;stop-opacity:1" />
      <stop offset="100%" style="stop-color:#818cf8;stop-opacity:1" />
    </linearGradient>
  </defs>

  <rect width="64" height="64" rx="14" fill="#1e293b"/>

  <g transform="translate(32, 32)">
    <path d="M -18 -4 L -10 -4 L -6 -12 L -2 -4 L 6 -4 L 10 -12 L 14 -4 L 18 -4"
          stroke="url(#lineGrad)" stroke-width="2.5" stroke-linecap="round" stroke-linejoin="round" fill="none"/>

    <path d="M -18 4 L -10 4 L -6 12 L -2 4 L 6 4 L 10 12 L 14 4 L 18 4"
          stroke="url(#lineGrad)" stroke-width="2.5" stroke-linecap="round" stroke-linejoin="round" fill="none" opacity="0.35"/>

    <circle cx="-18" cy="0" r="2.5" fill="url(#accentGrad)"/>
    <circle cx="-6" cy="0" r="2.5" fill="url(#accentGrad)"/>
    <circle cx="0" cy="0" r="3.5" fill="url(#accentGrad)"/>
    <circle cx="6" cy="0" r="2.5" fill="url(#accentGrad)"/>
    <circle cx="18" cy="0" r="2.5" fill="url(#accentGrad)"/>
  </g>
</svg>
