<svg width="256" height="256" viewBox="0 0 256 256" fill="none" xmlns="http://www.w3.org/2000/svg">
  <defs>
    <linearGradient id="bgGrad256" x1="0%" y1="0%" x2="100%" y2="100%">
      <stop offset="0%" style="stop-color:#1e293b;stop-opacity:1" />
      <stop offset="100%" style="stop-color:#0f172a;stop-opacity:1" />
    </linearGradient>

    <linearGradient id="accentGrad256" x1="0%" y1="0%" x2="100%" y2="100%">
      <stop offset="0%" style="stop-color:#10b981;stop-opacity:1" />
      <stop offset="33%" style="stop-color:#3b82f6;stop-opacity:1" />
      <stop offset="66%" style="stop-color:#6366f1;stop-opacity:1" />
      <stop offset="100%" style="stop-color:#8b5cf6;stop-opacity:1" />
    </linearGradient>

    <linearGradient id="lineGrad256" x1="0%" y1="0%" x2="100%" y2="0%">
      <stop offset="0%" style="stop-color:#34d399;stop-opacity:1" />
      <stop offset="100%" style="stop-color:#818cf8;stop-opacity:1" />
    </linearGradient>

    <filter id="glow256" x="-50%" y="-50%" width="200%" height="200%">
      <feGaussianBlur stdDeviation="3" result="coloredBlur"/>
      <feMerge>
        <feMergeNode in="coloredBlur"/>
        <feMergeNode in="SourceGraphic"/>
      </feMerge>
    </filter>
  </defs>

  <rect width="256" height="256" rx="56" fill="url(#bgGrad256)"/>

  <g transform="translate(128, 128)">
    <circle cx="0" cy="0" r="90" stroke="#374151" stroke-width="2" fill="none" opacity="0.4"/>

    <g filter="url(#glow256)">
      <path d="M -70 -15 L -40 -15 L -25 -45 L -10 -15 L 10 -15 L 25 -45 L 40 -15 L 70 -15"
            stroke="url(#lineGrad256)" stroke-width="6" stroke-linecap="round" stroke-linejoin="round" fill="none"/>

      <path d="M -70 15 L -40 15 L -25 45 L -10 15 L 10 15 L 25 45 L 40 15 L 70 15"
            stroke="url(#lineGrad256)" stroke-width="6" stroke-linecap="round" stroke-linejoin="round" fill="none" opacity="0.3"/>
    </g>

    <circle cx="-70" cy="0" r="9" fill="url(#accentGrad256)" filter="url(#glow256)"/>
    <circle cx="-25" cy="0" r="9" fill="url(#accentGrad256)" filter="url(#glow256)"/>
    <circle cx="0" cy="0" r="13" fill="url(#accentGrad256)" filter="url(#glow256)"/>
    <circle cx="25" cy="0" r="9" fill="url(#accentGrad256)" filter="url(#glow256)"/>
    <circle cx="70" cy="0" r="9" fill="url(#accentGrad256)" filter="url(#glow256)"/>
  </g>
</svg>
