<svg width="32" height="32" viewBox="0 0 32 32" fill="none" xmlns="http://www.w3.org/2000/svg">
  <defs>
    <linearGradient id="bgGrad32" x1="0%" y1="0%" x2="100%" y2="100%">
      <stop offset="0%" style="stop-color:#1e293b;stop-opacity:1" />
      <stop offset="100%" style="stop-color:#0f172a;stop-opacity:1" />
    </linearGradient>

    <linearGradient id="accentGrad32" x1="0%" y1="0%" x2="100%" y2="100%">
      <stop offset="0%" style="stop-color:#10b981;stop-opacity:1" />
      <stop offset="33%" style="stop-color:#3b82f6;stop-opacity:1" />
      <stop offset="66%" style="stop-color:#6366f1;stop-opacity:1" />
      <stop offset="100%" style="stop-color:#8b5cf6;stop-opacity:1" />
    </linearGradient>

    <linearGradient id="lineGrad32" x1="0%" y1="0%" x2="100%" y2="0%">
      <stop offset="0%" style="stop-color:#34d399;stop-opacity:1" />
      <stop offset="100%" style="stop-color:#818cf8;stop-opacity:1" />
    </linearGradient>
  </defs>

  <rect width="32" height="32" rx="7" fill="url(#bgGrad32)"/>

  <g transform="translate(16, 16)">
    <path d="M -9 -2 L -5 -2 L -3 -6 L -1 -2 L 1 -2 L 3 -6 L 5 -2 L 9 -2"
          stroke="url(#lineGrad32)" stroke-width="1.2" stroke-linecap="round" stroke-linejoin="round" fill="none"/>

    <path d="M -9 2 L -5 2 L -3 6 L -1 2 L 1 2 L 3 6 L 5 2 L 9 2"
          stroke="url(#lineGrad32)" stroke-width="1.2" stroke-linecap="round" stroke-linejoin="round" fill="none" opacity="0.35"/>

    <circle cx="-9" cy="0" r="1.5" fill="url(#accentGrad32)"/>
    <circle cx="-3" cy="0" r="1.5" fill="url(#accentGrad32)"/>
    <circle cx="0" cy="0" r="2" fill="url(#accentGrad32)"/>
    <circle cx="3" cy="0" r="1.5" fill="url(#accentGrad32)"/>
    <circle cx="9" cy="0" r="1.5" fill="url(#accentGrad32)"/>
  </g>
</svg>
