<svg width="512" height="512" viewBox="0 0 512 512" fill="none" xmlns="http://www.w3.org/2000/svg">
  <!-- Simple, clean logo for app icon -->
  <defs>
    <linearGradient id="mainGradient" x1="0%" y1="0%" x2="100%" y2="100%">
      <stop offset="0%" style="stop-color:#10b981;stop-opacity:1" />
      <stop offset="50%" style="stop-color:#3b82f6;stop-opacity:1" />
      <stop offset="100%" style="stop-color:#8b5cf6;stop-opacity:1" />
    </linearGradient>
  </defs>

  <!-- Background -->
  <rect width="512" height="512" rx="112" fill="#1a1f2e"/>

  <!-- Main icon elements -->
  <g transform="translate(256, 240)">
    <!-- Left bracket -->
    <path d="M -120 -80 L -140 -80 L -140 80 L -120 80" stroke="#34d399" stroke-width="12" stroke-linecap="round" fill="none"/>

    <!-- Right bracket -->
    <path d="M 120 -80 L 140 -80 L 140 80 L 120 80" stroke="#8b5cf6" stroke-width="12" stroke-linecap="round" fill="none"/>

    <!-- CAN bus waveform -->
    <path d="M -80 0 L -40 0 L -20 -40 L 0 0 L 40 0 L 60 -40 L 80 0"
          stroke="url(#mainGradient)" stroke-width="10" stroke-linecap="round" stroke-linejoin="round" fill="none"/>

    <!-- Data nodes -->
    <circle cx="-80" cy="0" r="10" fill="#34d399"/>
    <circle cx="-20" cy="0" r="10" fill="#3b82f6"/>
    <circle cx="0" cy="0" r="14" fill="url(#mainGradient)"/>
    <circle cx="20" cy="0" r="10" fill="#3b82f6"/>
    <circle cx="80" cy="0" r="10" fill="#8b5cf6"/>
  </g>

  <!-- Text label -->
  <text x="256" y="400" font-family="system-ui, sans-serif" font-size="56" font-weight="700" fill="#e5e7eb" text-anchor="middle">CANVIEW</text>
  <text x="256" y="440" font-family="system-ui, sans-serif" font-size="24" font-weight="400" fill="#9ca3af" text-anchor="middle">BUS ANALYZER</text>
</svg>
